<svg xmlns="http://www.w3.org/2000/svg" width="24" height="24" fill="none"><path fill="currentColor" d="M9 1a1 1 0 0 1 1 1v1.5a1 1 0 1 1-2 0V2a1 1 0 0 1 1-1ZM3.293 3.293a1 1 0 0 1 1.414 0l1.06 1.06a1 1 0 0 1-1.413 1.415l-1.061-1.06a1 1 0 0 1 0-1.415ZM5.768 13.707a1 1 0 1 0-1.414-1.414l-1.061 1.06a1 1 0 1 0 1.414 1.415l1.06-1.06ZM14.768 3.293a1 1 0 0 1 0 1.414l-1.06 1.06a1 1 0 1 1-1.415-1.413l1.06-1.061a1 1 0 0 1 1.415 0ZM2 8a1 1 0 0 0 0 2h1.5a1 1 0 1 0 0-2H2ZM8.806 7.548a1 1 0 0 0-1.258 1.258l4.111 12.778a1 1 0 0 0 1.66.4l2.181-2.18 2.904 2.903a1 1 0 0 0 1.414 0l2.89-2.889a1 1 0 0 0 0-1.414L19.802 15.5l2.182-2.182a1 1 0 0 0-.4-1.659L8.805 7.55Z"/></svg>