<svg xmlns="http://www.w3.org/2000/svg" fill="none" viewBox="0 0 24 24"><path fill="currentColor" d="M11 3.6c0-.56 0-.84-.109-1.054a1 1 0 0 0-.437-.437C10.24 2 9.96 2 9.4 2H6.161c-.527 0-.981 0-1.356.03-.395.033-.789.104-1.167.297a3 3 0 0 0-1.311 1.311c-.193.378-.264.772-.296 1.167C2 5.18 2 5.635 2 6.161V9.4c0 .56 0 .84.109 1.054a1 1 0 0 0 .437.437C2.76 11 3.04 11 3.6 11h5.8c.56 0 .84 0 1.054-.109a1 1 0 0 0 .437-.437C11 10.24 11 9.96 11 9.4V3.6ZM3.6 13c-.56 0-.84 0-1.054.109a1 1 0 0 0-.437.437C2 13.76 2 14.04 2 14.6v3.239c0 .527 0 .982.03 1.356.033.395.104.789.297 1.167a3 3 0 0 0 1.311 1.311c.378.193.772.264 1.167.296.375.031.83.031 1.356.031H9.4c.56 0 .84 0 1.054-.109a1 1 0 0 0 .437-.437C11 21.24 11 20.96 11 20.4v-5.8c0-.56 0-.84-.109-1.054a1 1 0 0 0-.437-.437C10.24 13 9.96 13 9.4 13H3.6Zm9.4 7.4c0 .56 0 .84.109 1.054a1 1 0 0 0 .437.437C13.76 22 14.04 22 14.6 22h3.239c.527 0 .982 0 1.356-.03.395-.033.789-.104 1.167-.297a3 3 0 0 0 1.311-1.311c.193-.378.264-.772.296-1.167.031-.375.031-.83.031-1.356V14.6c0-.56 0-.84-.109-1.054a1 1 0 0 0-.437-.437C21.24 13 20.96 13 20.4 13h-5.8c-.56 0-.84 0-1.054.109a1 1 0 0 0-.437.437C13 13.76 13 14.04 13 14.6v5.8Zm9-11c0 .56 0 .84-.109 1.054a1 1 0 0 1-.437.437C21.24 11 20.96 11 20.4 11h-5.8c-.56 0-.84 0-1.054-.109a1 1 0 0 1-.437-.437C13 10.24 13 9.96 13 9.4V3.6c0-.56 0-.84.109-1.054a1 1 0 0 1 .437-.437C13.76 2 14.04 2 14.6 2h3.239c.527 0 .982 0 1.356.03.395.033.789.104 1.167.297a3 3 0 0 1 1.311 1.311c.193.378.264.772.296 1.167.031.375.031.83.031 1.356V9.4Z"/></svg>