<svg xmlns="http://www.w3.org/2000/svg" width="24" height="24" fill="none"><path fill="currentColor" fill-rule="evenodd" d="M7.54 1.23a3.033 3.033 0 0 1 2.32 0l1.744.723c.253.104.537.104.79 0l.002-.002 1.744-.72a3.034 3.034 0 0 1 3.962 1.642l.705 1.703a1.032 1.032 0 0 0 .576.6l1.745.722a3.033 3.033 0 0 1 1.641 3.962l-.722 1.745a1.03 1.03 0 0 0 0 .789v.002l.721 1.743a3.034 3.034 0 0 1-1.641 3.963l-1.744.723a1.034 1.034 0 0 0-.56.557l-.722 1.746a3.033 3.033 0 0 1-3.962 1.641l-1.744-.722a1.033 1.033 0 0 0-.79 0v.001l-1.746.722a3.033 3.033 0 0 1-3.96-1.64l-.723-1.747a1.034 1.034 0 0 0-.559-.56l-1.744-.722a3.033 3.033 0 0 1-1.642-3.96l.722-1.744a1.034 1.034 0 0 0 0-.79L1.23 9.86a3.036 3.036 0 0 1 .658-3.306c.281-.282.616-.505.984-.658l1.744-.722c.252-.105.454-.305.559-.557l.722-1.745A3.033 3.033 0 0 1 7.54 1.231Zm9.167 7.477a1 1 0 0 0-1.414-1.414l-8 8a1 1 0 1 0 1.414 1.414l8-8ZM7.5 9a1.5 1.5 0 1 1 3 0 1.5 1.5 0 0 1-3 0Zm6 6a1.5 1.5 0 1 1 3 0 1.5 1.5 0 0 1-3 0Z" clip-rule="evenodd"/></svg>